<svg width="89" height="129" viewBox="0 0 89 129" fill="none" xmlns="http://www.w3.org/2000/svg">
<path d="M3.58333 100.917V22.75C4.3611 16.1389 9.06666 2.91666 21.6667 2.91666C34.2667 2.91666 38.9722 16.1389 39.75 22.75V49.5833C39.9444 50.5555 41.5 53.0833 46.1667 55.4167C70.6667 68.8333 59.5833 100.917 56.6667 111.417C54.3333 119.817 42.8611 124.25 37.4167 125.417C33.7222 124.25 24 120.983 14.6667 117.25C5.33333 113.517 3.38888 104.806 3.58333 100.917Z" fill="white"/>
<path d="M88.8763 85.09C88.8763 62.777 71.7321 44.5763 50.5111 44.1793L55.0488 41.2156C56.5448 40.2371 56.9703 38.2306 55.9918 36.7274C55.0204 35.2243 53.0139 34.7989 51.5179 35.7773L43.1727 41.2227V21.3133C43.1868 9.56473 33.6505 0 21.9232 0C10.196 0 0.666672 9.56473 0.666672 21.3204V100.596C0.666672 108.225 4.28978 114.146 12.0607 119.222C12.9541 119.804 13.9254 120.307 14.9677 120.718C14.9819 120.718 14.989 120.726 15.0031 120.733L33.4023 127.794C33.7072 127.929 34.2815 128.099 34.5297 128.128C35.7846 128.27 37.0325 128.326 38.2733 128.326C42.7047 128.326 47.0014 127.504 51.0357 125.979C72.0158 125.292 88.8763 107.212 88.8763 85.0829V85.09ZM55.4459 116.45C55.7153 116.138 55.9776 115.826 56.24 115.5C62.1461 108.183 65.3935 98.4905 65.3935 88.2168C65.3935 77.943 62.139 68.2506 56.24 60.9335C54.3398 58.5796 52.2411 56.5588 49.9935 54.8926C63.9967 59.9692 72.7248 73.625 71.0728 89.5214C69.8745 101.029 63.8336 110.757 55.4459 116.443V116.45ZM15.5916 113.798C8.09724 108.899 7.13297 104.17 7.13297 100.603V21.3204C7.13297 13.1382 13.7694 6.48048 21.9303 6.48048C30.0912 6.48048 36.7276 13.1382 36.7276 21.3204V45.4484L26.0072 52.4465C24.5111 53.425 24.0857 55.4315 25.0642 56.9346C25.681 57.8918 26.7162 58.4094 27.7797 58.4094C28.3824 58.4094 28.9922 58.2392 29.5381 57.8847L32.8493 55.7222C33.0194 55.7505 33.1967 55.7718 33.3739 55.7718C47.4764 55.7718 58.9484 70.3281 58.9484 88.2309C58.9484 106.134 47.4764 120.683 33.3739 120.683C33.2463 120.683 33.1187 120.69 32.9911 120.704L17.3429 114.699C16.7119 114.451 16.1305 114.146 15.6058 113.805L15.5916 113.798ZM67.79 113.805C73.0226 107.403 76.5606 99.2775 77.5036 90.202C78.6522 79.1625 75.5467 68.6052 68.7684 60.4797C65.9394 57.0835 62.5786 54.2332 58.8421 51.9998C72.4412 56.1476 82.4171 69.4134 82.4171 85.09C82.4171 97.0654 76.596 107.63 67.79 113.798V113.805Z" fill="#4A8B23"/>
<path d="M55.4459 116.45C55.7153 116.138 55.9776 115.826 56.24 115.5C62.1461 108.183 65.3935 98.4905 65.3935 88.2167C65.3935 77.943 62.139 68.2506 56.24 60.9335C54.3398 58.5795 52.2411 56.5588 49.9935 54.8926C63.9967 59.9692 72.7248 73.625 71.0728 89.5214C69.8745 101.029 63.8336 110.757 55.4459 116.443V116.45ZM67.79 113.805C73.0226 107.403 76.5606 99.2775 77.5036 90.202C78.6522 79.1625 75.5467 68.6051 68.7684 60.4797C65.9394 57.0835 62.5786 54.2332 58.8421 51.9998C72.4412 56.1476 82.4171 69.4134 82.4171 85.09C82.4171 97.0654 76.596 107.63 67.79 113.798V113.805Z" fill="#FFE000"/>
<path d="M29.0135 68.9455L28.8362 68.8675C24.9649 67.0737 20.5548 69.9098 20.5548 74.1852V97.7248C20.5548 98.3558 20.6611 98.9656 20.8455 99.547L34.2673 94.4065L26.071 104.014C32.1899 106.616 39.032 102.121 39.032 95.3921V84.6504C39.032 77.9005 35.1181 71.7674 29.0135 68.9384V68.9455Z" fill="#4A8B23"/>
</svg>
